<!DOCTYPE svg PUBLIC "-//W3C//DTD SVG 1.1//EN" "http://www.w3.org/Graphics/SVG/1.1/DTD/svg11.dtd">
<!-- Uploaded to: SVG Repo, www.svgrepo.com, Transformed by: SVG Repo Mixer Tools -->
<svg width="800px" height="800px" viewBox="0 0 1024 1024" xmlns="http://www.w3.org/2000/svg" fill="#000000">
<g id="SVGRepo_bgCarrier" stroke-width="0"/>
<g id="SVGRepo_tracerCarrier" stroke-linecap="round" stroke-linejoin="round"/>
<g id="SVGRepo_iconCarrier">
<path fill="#E4BB62" d="M199.232 125.568 90.624 379.008a32 32 0 0 0 6.784 35.2l512.384 512.384a32 32 0 0 0 35.2 6.784l253.44-108.608a32 32 0 0 0 10.048-52.032L769.6 633.92a32 32 0 0 0-36.928-5.952l-130.176 65.088-271.488-271.552 65.024-130.176a32 32 0 0 0-5.952-36.928L251.2 115.52a32 32 0 0 0-51.968 10.048z"/>
</g>
</svg>